<?xml version="1.0" encoding="utf-8"?>
<!-- Generator: Adobe Illustrator 15.0.0, SVG Export Plug-In . SVG Version: 6.00 Build 0)  -->
<!DOCTYPE svg PUBLIC "-//W3C//DTD SVG 1.1//EN" "http://www.w3.org/Graphics/SVG/1.1/DTD/svg11.dtd">
<svg version="1.1" id="Capa_1" xmlns="http://www.w3.org/2000/svg" xmlns:xlink="http://www.w3.org/1999/xlink" x="0px" y="0px"
	 width="841.889px" height="595.281px" viewBox="0 0 841.889 595.281" enable-background="new 0 0 841.889 595.281"
	 xml:space="preserve">
<g>
	<path fill="#F47821" d="M589.304,277.305h-28.562V145.924c0-31.496-25.624-57.12-57.121-57.12h-38.683l-39.586-71.175
		C419.32,6.752,407.838,0,395.386,0c-5.804,0-11.562,1.497-16.646,4.318L226.82,88.802H57.121C25.624,88.802,0,114.425,0,145.923
		v392.234c0,31.497,25.624,57.122,57.121,57.122H503.62c31.497,0,57.121-25.625,57.121-57.122V422.966h28.562V277.305
		L589.304,277.305z M503.62,111.65c17.594,0,31.966,13.365,33.896,30.468h-42.935l-16.932-30.468H503.62z M389.856,24.288
		c5.357-3.005,12.568-0.902,15.525,4.434l63.062,113.387H177.969L389.856,24.288z M537.893,538.157
		c0,18.896-15.378,34.274-34.273,34.274H57.121c-18.896,0-34.273-15.378-34.273-34.274V145.924
		c0-18.896,15.378-34.272,34.273-34.272h128.615l-54.791,30.47H64.262c-6.317,0-11.425,5.118-11.425,11.425
		c0,6.308,5.106,11.426,11.425,11.426h25.591h417.437h30.604v112.347h-83.546c-38.799,0-70.374,31.577-70.374,70.374v4.913
		c0,38.798,31.577,70.374,70.374,70.374h83.546L537.893,538.157L537.893,538.157z M566.453,400.117h-5.712H454.348
		c-26.208,0-47.526-21.316-47.526-47.525v-4.913c0-26.207,21.317-47.526,47.526-47.526h106.395h5.712L566.453,400.117
		L566.453,400.117z M489.34,351.073c0,13.938-11.288,25.225-25.226,25.225s-25.225-11.287-25.225-25.225
		c0-13.937,11.288-25.225,25.225-25.225C478.054,325.846,489.34,337.145,489.34,351.073z"/>
</g>
</svg>
